{
  "accessors": [
    {
      "bufferView": 2,
      "componentType": 5126,
      "count": 1436,
      "max": [
        11.563575744628906,
        3.6803267002105713,
        12.096891403198242
      ],
      "min": [
        4.45413064956665,
        -3.7117526531219482,
        6.027099609375
      ],
      "type": "VEC3"
    },
    {
      "bufferView": 2,
      "byteOffset": 17232,
      "componentType": 5126,
      "count": 1436,
      "max": [
        1.0,
        1.0,
        1.0
      ],
      "min": [
        -1.0,
        -1.0,
        -1.595228810158389e-10
      ],
      "type": "VEC3"
    },
    {
      "bufferView": 1,
      "componentType": 5126,
      "count": 1436,
      "max": [
        0.3888782858848572,
        0.99853515625
      ],
      "min": [
        0.0,
        0.0
      ],
      "type": "VEC2"
    },
    {
      "bufferView": 0,
      "componentType": 5125,
      "count": 7152,
      "type": "SCALAR"
    },
    {
      "bufferView": 2,
      "byteOffset": 34464,
      "componentType": 5126,
      "count": 514,
      "max": [
        12.142101287841797,
        4.135670185089111,
        12.096891403198242
      ],
      "min": [
        3.870760440826416,
        -4.135670185089111,
        8.349209785461426
      ],
      "type": "VEC3"
    },
    {
      "bufferView": 2,
      "byteOffset": 40632,
      "componentType": 5126,
      "count": 514,
      "max": [
        0.999867856502533,
        0.999867856502533,
        0.18565423786640167
      ],
      "min": [
        -0.999867856502533,
        -0.999867856502533,
        -0.2198391556739807
      ],
      "type": "VEC3"
    },
    {
      "bufferView": 1,
      "byteOffset": 11488,
      "componentType": 5126,
      "count": 514,
      "max": [
        1.0,
        1.0
      ],
      "min": [
        0.0,
        0.0
      ],
      "type": "VEC2"
    },
    {
      "bufferView": 0,
      "byteOffset": 28608,
      "componentType": 5125,
      "count": 2658,
      "type": "SCALAR"
    },
    {
      "bufferView": 2,
      "byteOffset": 46800,
      "componentType": 5126,
      "count": 64,
      "max": [
        11.563575744628906,
        3.6803267002105713,
        12.096891403198242
      ],
      "min": [
        4.45413064956665,
        -3.7117526531219482,
        12.096891403198242
      ],
      "type": "VEC3"
    },
    {
      "bufferView": 2,
      "byteOffset": 47568,
      "componentType": 5126,
      "count": 64,
      "max": [
        0.0,
        -0.0,
        -1.0
      ],
      "min": [
        0.0,
        -0.0,
        -1.0
      ],
      "type": "VEC3"
    },
    {
      "bufferView": 1,
      "byteOffset": 15600,
      "componentType": 5126,
      "count": 64,
      "max": [
        0.9901960492134094,
        0.9901960492134094
      ],
      "min": [
        0.009803921915590763,
        0.009803921915590763
      ],
      "type": "VEC2"
    },
    {
      "bufferView": 0,
      "byteOffset": 39240,
      "componentType": 5125,
      "count": 186,
      "type": "SCALAR"
    },
    {
      "bufferView": 2,
      "byteOffset": 48336,
      "componentType": 5126,
      "count": 7609,
      "max": [
        12.4863862991333,
        4.479955673217773,
        17.279272079467773
      ],
      "min": [
        0.1459604650735855,
        -4.479955673217773,
        3.9862711429595947
      ],
      "type": "VEC3"
    },
    {
      "bufferView": 2,
      "byteOffset": 139644,
      "componentType": 5126,
      "count": 7609,
      "max": [
        1.0,
        1.0,
        0.9982395768165588
      ],
      "min": [
        -1.0,
        -1.0,
        -0.9999999403953552
      ],
      "type": "VEC3"
    },
    {
      "bufferView": 1,
      "byteOffset": 16112,
      "componentType": 5126,
      "count": 7609,
      "max": [
        1.0,
        1.0
      ],
      "min": [
        0.0,
        0.0
      ],
      "type": "VEC2"
    },
    {
      "bufferView": 0,
      "byteOffset": 39984,
      "componentType": 5125,
      "count": 32976,
      "type": "SCALAR"
    }
  ],
  "asset": {
    "extras": {
      "author": "NICOLEAPAGON (https://sketchfab.com/NICOLEAPAGON)",
      "license": "CC-BY-4.0 (http://creativecommons.org/licenses/by/4.0/)",
      "source": "https://sketchfab.com/3d-models/mate-a0ee8774786f4495b783dec4e44a1341",
      "title": "Mate"
    },
    "generator": "Sketchfab-14.25.0",
    "version": "2.0"
  },
  "bufferViews": [
    {
      "buffer": 0,
      "byteLength": 171888,
      "name": "floatBufferViews",
      "target": 34963
    },
    {
      "buffer": 0,
      "byteLength": 76984,
      "byteOffset": 171888,
      "byteStride": 8,
      "name": "floatBufferViews",
      "target": 34962
    },
    {
      "buffer": 0,
      "byteLength": 230952,
      "byteOffset": 248872,
      "byteStride": 12,
      "name": "floatBufferViews",
      "target": 34962
    }
  ],
  "buffers": [
    {
      "byteLength": 479824,
      "uri": "scene.bin"
    }
  ],
  "images": [
    {
      "uri": "textures/Nuevo_material_006_baseColor.jpeg"
    },
    {
      "uri": "textures/Roble_baseColor.png"
    },
    {
      "uri": "textures/yerba_baseColor.jpeg"
    }
  ],
  "materials": [
    {
      "doubleSided": true,
      "name": "Default",
      "pbrMetallicRoughness": {
        "metallicFactor": 0.0
      }
    },
    {
      "doubleSided": true,
      "name": "Nuevo_material_006",
      "pbrMetallicRoughness": {
        "baseColorTexture": {
          "index": 0
        },
        "metallicFactor": 0.0,
        "roughnessFactor": 0.7117878582897994
      }
    },
    {
      "doubleSided": true,
      "name": "Roble",
      "pbrMetallicRoughness": {
        "baseColorTexture": {
          "index": 1
        },
        "metallicFactor": 0.0
      }
    },
    {
      "doubleSided": true,
      "name": "yerba",
      "pbrMetallicRoughness": {
        "baseColorTexture": {
          "index": 2
        },
        "metallicFactor": 0.0
      }
    }
  ],
  "meshes": [
    {
      "name": "Object_0",
      "primitives": [
        {
          "attributes": {
            "NORMAL": 1,
            "POSITION": 0,
            "TEXCOORD_0": 2
          },
          "indices": 3,
          "material": 0,
          "mode": 4
        }
      ]
    },
    {
      "name": "Object_1",
      "primitives": [
        {
          "attributes": {
            "NORMAL": 5,
            "POSITION": 4,
            "TEXCOORD_0": 6
          },
          "indices": 7,
          "material": 2,
          "mode": 4
        }
      ]
    },
    {
      "name": "Object_2",
      "primitives": [
        {
          "attributes": {
            "NORMAL": 9,
            "POSITION": 8,
            "TEXCOORD_0": 10
          },
          "indices": 11,
          "material": 3,
          "mode": 4
        }
      ]
    },
    {
      "name": "Object_3",
      "primitives": [
        {
          "attributes": {
            "NORMAL": 13,
            "POSITION": 12,
            "TEXCOORD_0": 14
          },
          "indices": 15,
          "material": 1,
          "mode": 4
        }
      ]
    }
  ],
  "nodes": [
    {
      "children": [
        1
      ],
      "matrix": [
        1.0,
        0.0,
        0.0,
        0.0,
        0.0,
        2.220446049250313e-16,
        -1.0,
        0.0,
        0.0,
        1.0,
        2.220446049250313e-16,
        0.0,
        0.0,
        0.0,
        0.0,
        1.0
      ],
      "name": "Sketchfab_model"
    },
    {
      "children": [
        2,
        3,
        4,
        5
      ],
      "name": "mate.obj.cleaner.materialmerger.gles"
    },
    {
      "mesh": 0,
      "name": "Object_2"
    },
    {
      "mesh": 1,
      "name": "Object_3"
    },
    {
      "mesh": 2,
      "name": "Object_4"
    },
    {
      "mesh": 3,
      "name": "Object_5"
    }
  ],
  "samplers": [
    {
      "magFilter": 9729,
      "minFilter": 9987,
      "wrapS": 10497,
      "wrapT": 10497
    }
  ],
  "scene": 0,
  "scenes": [
    {
      "name": "Sketchfab_Scene",
      "nodes": [
        0
      ]
    }
  ],
  "textures": [
    {
      "sampler": 0,
      "source": 0
    },
    {
      "sampler": 0,
      "source": 1
    },
    {
      "sampler": 0,
      "source": 2
    }
  ]
}
